<svg width="341" height="341" viewBox="0 0 341 341" fill="none" xmlns="http://www.w3.org/2000/svg">
<g clip-path="url(#clip0_1_3)">
<rect width="341" height="341" rx="50" fill="#e7e7e7"/>
<mask id="path-2-outside-1_1_3" maskUnits="userSpaceOnUse" x="36" y="73" width="267" height="196" fill="#161616">
<rect fill="#e7e7e7" x="36" y="73" width="267" height="196"/>
<path d="M90.0977 263C74.7643 263 62.8477 259.583 54.3477 252.75C46.0143 245.75 41.8477 235.917 41.8477 223.25H64.3477C64.3477 229.583 66.5977 234.583 71.0977 238.25C75.5977 241.75 81.931 243.5 90.0977 243.5H101.098C109.431 243.5 115.848 241.667 120.348 238C125.014 234.333 127.348 229.167 127.348 222.5C127.348 210.667 121.931 204 111.098 202.5L73.0977 197C63.7643 195.667 56.5143 191.833 51.3477 185.5C46.181 179 43.5977 170.5 43.5977 160C43.5977 148 47.681 138.583 55.8477 131.75C64.181 124.917 75.5977 121.5 90.0977 121.5H101.098C114.431 121.5 125.264 124.833 133.598 131.5C142.098 138 146.681 146.583 147.348 157.25H124.598C124.264 152.417 121.931 148.417 117.598 145.25C113.431 142.083 107.931 140.5 101.098 140.5H90.0977C82.431 140.5 76.431 142.25 72.0977 145.75C67.7643 149.25 65.5977 154 65.5977 160C65.5977 169.667 70.0143 175.167 78.8477 176.5L114.348 181.5C137.681 184.833 149.348 198.5 149.348 222.5C149.348 235.333 145.098 245.333 136.598 252.5C128.264 259.5 116.431 263 101.098 263H90.0977ZM237.5 263.5C223.833 263.5 212.833 258.917 204.5 249.75C196.333 240.583 192.25 228.167 192.25 212.5V172.25C192.25 156.417 196.333 143.917 204.5 134.75C212.667 125.583 223.667 121 237.5 121C247.833 121 256.333 123.583 263 128.75C269.833 133.917 273.917 140.917 275.25 149.75H275.5L275 118.5V78.5H297.5V261H275V234.75H274.75C273.583 243.75 269.667 250.833 263 256C256.333 261 247.833 263.5 237.5 263.5ZM245 244C254.333 244 261.667 241.083 267 235.25C272.333 229.417 275 221.333 275 211V173.5C275 163.167 272.333 155.083 267 149.25C261.667 143.417 254.333 140.5 245 140.5C235.5 140.5 228.083 143 222.75 148C217.417 152.833 214.75 160.917 214.75 172.25V212.25C214.75 223.417 217.417 231.5 222.75 236.5C228.083 241.5 235.5 244 245 244Z"/>
</mask>
<path d="M90.0977 263C74.7643 263 62.8477 259.583 54.3477 252.75C46.0143 245.75 41.8477 235.917 41.8477 223.25H64.3477C64.3477 229.583 66.5977 234.583 71.0977 238.25C75.5977 241.75 81.931 243.5 90.0977 243.5H101.098C109.431 243.5 115.848 241.667 120.348 238C125.014 234.333 127.348 229.167 127.348 222.5C127.348 210.667 121.931 204 111.098 202.5L73.0977 197C63.7643 195.667 56.5143 191.833 51.3477 185.5C46.181 179 43.5977 170.5 43.5977 160C43.5977 148 47.681 138.583 55.8477 131.75C64.181 124.917 75.5977 121.5 90.0977 121.5H101.098C114.431 121.5 125.264 124.833 133.598 131.5C142.098 138 146.681 146.583 147.348 157.25H124.598C124.264 152.417 121.931 148.417 117.598 145.25C113.431 142.083 107.931 140.5 101.098 140.5H90.0977C82.431 140.5 76.431 142.25 72.0977 145.75C67.7643 149.25 65.5977 154 65.5977 160C65.5977 169.667 70.0143 175.167 78.8477 176.5L114.348 181.5C137.681 184.833 149.348 198.5 149.348 222.5C149.348 235.333 145.098 245.333 136.598 252.5C128.264 259.5 116.431 263 101.098 263H90.0977ZM237.5 263.5C223.833 263.5 212.833 258.917 204.5 249.75C196.333 240.583 192.25 228.167 192.25 212.5V172.25C192.25 156.417 196.333 143.917 204.5 134.75C212.667 125.583 223.667 121 237.5 121C247.833 121 256.333 123.583 263 128.75C269.833 133.917 273.917 140.917 275.25 149.75H275.5L275 118.5V78.5H297.5V261H275V234.75H274.75C273.583 243.75 269.667 250.833 263 256C256.333 261 247.833 263.5 237.5 263.5ZM245 244C254.333 244 261.667 241.083 267 235.25C272.333 229.417 275 221.333 275 211V173.5C275 163.167 272.333 155.083 267 149.25C261.667 143.417 254.333 140.5 245 140.5C235.5 140.5 228.083 143 222.75 148C217.417 152.833 214.75 160.917 214.75 172.25V212.25C214.75 223.417 217.417 231.5 222.75 236.5C228.083 241.5 235.5 244 245 244Z" fill="black"/>
<path d="M54.3477 252.75L51.1317 256.579L51.1729 256.613L51.2149 256.647L54.3477 252.75ZM41.8477 223.25V218.25H36.8477V223.25H41.8477ZM64.3477 223.25H69.3477V218.25H64.3477V223.25ZM71.0977 238.25L67.9393 242.126L67.9832 242.162L68.028 242.197L71.0977 238.25ZM120.348 238L117.259 234.068L117.224 234.096L117.189 234.124L120.348 238ZM111.098 202.5L110.381 207.448L110.397 207.451L110.412 207.453L111.098 202.5ZM73.0977 197L73.8139 192.052L73.8048 192.05L73.0977 197ZM51.3477 185.5L47.4335 188.611L47.4533 188.636L47.4733 188.661L51.3477 185.5ZM55.8477 131.75L52.6773 127.884L52.6581 127.899L52.639 127.915L55.8477 131.75ZM133.598 131.5L130.474 135.404L130.517 135.439L130.56 135.472L133.598 131.5ZM147.348 157.25V162.25H152.67L152.338 156.938L147.348 157.25ZM124.598 157.25L119.61 157.594L119.931 162.25H124.598V157.25ZM117.598 145.25L114.572 149.231L114.61 149.259L114.648 149.287L117.598 145.25ZM72.0977 145.75L75.2393 149.64L75.2393 149.64L72.0977 145.75ZM78.8477 176.5L78.1014 181.444L78.1258 181.448L78.1503 181.451L78.8477 176.5ZM114.348 181.5L115.055 176.55L115.045 176.549L114.348 181.5ZM136.598 252.5L139.814 256.329L139.821 256.323L136.598 252.5ZM90.0977 258C75.4493 258 64.7932 254.732 57.4804 248.853L51.2149 256.647C60.9021 264.435 74.0794 268 90.0977 268V258ZM57.5636 248.921C50.5524 243.032 46.8477 234.709 46.8477 223.25H36.8477C36.8477 237.124 41.4763 248.468 51.1317 256.579L57.5636 248.921ZM41.8477 228.25H64.3477V218.25H41.8477V228.25ZM59.3477 223.25C59.3477 230.931 62.1582 237.416 67.9393 242.126L74.256 234.374C71.0372 231.751 69.3477 228.236 69.3477 223.25H59.3477ZM68.028 242.197C73.7143 246.619 81.2864 248.5 90.0977 248.5V238.5C82.5756 238.5 77.481 236.881 74.1674 234.303L68.028 242.197ZM90.0977 248.5H101.098V238.5H90.0977V248.5ZM101.098 248.5C110.092 248.5 117.797 246.528 123.506 241.876L117.189 234.124C113.899 236.805 108.77 238.5 101.098 238.5V248.5ZM123.437 241.932C129.47 237.192 132.348 230.486 132.348 222.5H122.348C122.348 227.848 120.559 231.475 117.259 234.068L123.437 241.932ZM132.348 222.5C132.348 215.865 130.829 209.981 127.166 205.472C123.458 200.908 118.098 198.422 111.783 197.547L110.412 207.453C114.93 208.078 117.696 209.675 119.405 211.778C121.158 213.935 122.348 217.302 122.348 222.5H132.348ZM111.814 197.552L73.8139 192.052L72.3814 201.948L110.381 207.448L111.814 197.552ZM73.8048 192.05C65.5102 190.865 59.4736 187.551 55.222 182.339L47.4733 188.661C53.5551 196.116 62.0185 200.468 72.3906 201.95L73.8048 192.05ZM55.2618 182.389C50.9668 176.985 48.5977 169.674 48.5977 160H38.5977C38.5977 171.326 41.3952 181.015 47.4335 188.611L55.2618 182.389ZM48.5977 160C48.5977 149.269 52.1775 141.34 59.0563 135.585L52.639 127.915C43.1844 135.826 38.5977 146.731 38.5977 160H48.5977ZM59.0181 135.616C66.1907 129.735 76.3539 126.5 90.0977 126.5V116.5C74.8414 116.5 62.1713 120.099 52.6773 127.884L59.0181 135.616ZM90.0977 126.5H101.098V116.5H90.0977V126.5ZM101.098 126.5C113.585 126.5 123.23 129.609 130.474 135.404L136.721 127.596C127.299 120.058 115.277 116.5 101.098 116.5V126.5ZM130.56 135.472C137.912 141.093 141.781 148.342 142.357 157.562L152.338 156.938C151.581 144.824 146.284 134.907 136.635 127.528L130.56 135.472ZM147.348 152.25H124.598V162.25H147.348V152.25ZM129.586 156.906C129.139 150.431 125.927 145.144 120.548 141.213L114.648 149.287C117.935 151.689 119.389 154.402 119.61 157.594L129.586 156.906ZM120.623 141.269C115.353 137.264 108.689 135.5 101.098 135.5V145.5C107.173 145.5 111.509 146.903 114.572 149.231L120.623 141.269ZM101.098 135.5H90.0977V145.5H101.098V135.5ZM90.0977 135.5C81.714 135.5 74.4619 137.413 68.956 141.86L75.2393 149.64C78.4001 147.087 83.148 145.5 90.0977 145.5V135.5ZM68.956 141.86C63.3473 146.39 60.5977 152.623 60.5977 160H70.5977C70.5977 155.377 72.1814 152.11 75.2393 149.64L68.956 141.86ZM60.5977 160C60.5977 165.554 61.8664 170.589 65.0116 174.506C68.1992 178.475 72.7871 180.642 78.1014 181.444L79.5939 171.556C76.0749 171.025 74.0378 169.775 72.8087 168.244C71.5372 166.661 70.5977 164.113 70.5977 160H60.5977ZM78.1503 181.451L113.65 186.451L115.045 176.549L79.545 171.549L78.1503 181.451ZM113.641 186.45C124.485 187.999 131.971 191.846 136.795 197.496C141.629 203.159 144.348 211.287 144.348 222.5H154.348C154.348 209.713 151.233 199.008 144.4 191.004C137.557 182.988 127.543 178.334 115.055 176.55L113.641 186.45ZM144.348 222.5C144.348 234.113 140.568 242.613 133.375 248.677L139.821 256.323C149.628 248.054 154.348 236.554 154.348 222.5H144.348ZM133.382 248.671C126.256 254.657 115.73 258 101.098 258V268C117.132 268 130.273 264.343 139.814 256.329L133.382 248.671ZM101.098 258H90.0977V268H101.098V258ZM204.5 249.75L200.767 253.076L200.783 253.095L200.8 253.113L204.5 249.75ZM204.5 134.75L208.233 138.076L208.233 138.076L204.5 134.75ZM263 128.75L259.937 132.702L259.961 132.72L259.984 132.738L263 128.75ZM275.25 149.75L270.306 150.496L270.948 154.75H275.25V149.75ZM275.5 149.75V154.75H280.581L280.499 149.67L275.5 149.75ZM275 118.5H270V118.54L270.001 118.58L275 118.5ZM275 78.5V73.5H270V78.5H275ZM297.5 78.5H302.5V73.5H297.5V78.5ZM297.5 261V266H302.5V261H297.5ZM275 261H270V266H275V261ZM275 234.75H280V229.75H275V234.75ZM274.75 234.75V229.75H270.356L269.791 234.107L274.75 234.75ZM263 256L266 260L266.032 259.976L266.063 259.952L263 256ZM267 235.25L263.31 231.876L267 235.25ZM222.75 148L226.108 151.705L226.139 151.677L226.17 151.648L222.75 148ZM237.5 258.5C225.08 258.5 215.482 254.397 208.2 246.387L200.8 253.113C210.185 263.437 222.587 268.5 237.5 268.5V258.5ZM208.233 246.424C201.088 238.404 197.25 227.289 197.25 212.5H187.25C187.25 229.044 191.578 242.763 200.767 253.076L208.233 246.424ZM197.25 212.5V172.25H187.25V212.5H197.25ZM197.25 172.25C197.25 157.278 201.096 146.087 208.233 138.076L200.767 131.424C191.57 141.747 187.25 155.555 187.25 172.25H197.25ZM208.233 138.076C215.325 130.116 224.892 126 237.5 126V116C222.441 116 210.008 121.051 200.767 131.424L208.233 138.076ZM237.5 126C246.981 126 254.33 128.356 259.937 132.702L266.063 124.798C258.337 118.81 248.686 116 237.5 116V126ZM259.984 132.738C265.728 137.081 269.158 142.893 270.306 150.496L280.194 149.004C278.675 138.941 273.939 130.752 266.016 124.762L259.984 132.738ZM275.25 154.75H275.5V144.75H275.25V154.75ZM280.499 149.67L279.999 118.42L270.001 118.58L270.501 149.83L280.499 149.67ZM280 118.5V78.5H270V118.5H280ZM275 83.5H297.5V73.5H275V83.5ZM292.5 78.5V261H302.5V78.5H292.5ZM297.5 256H275V266H297.5V256ZM280 261V234.75H270V261H280ZM275 229.75H274.75V239.75H275V229.75ZM269.791 234.107C268.78 241.907 265.475 247.756 259.937 252.048L266.063 259.952C273.858 253.911 278.386 245.593 279.709 235.393L269.791 234.107ZM260 252C254.389 256.208 247.016 258.5 237.5 258.5V268.5C248.651 268.5 258.278 265.792 266 260L260 252ZM245 249C255.46 249 264.238 245.681 270.69 238.624L263.31 231.876C259.096 236.485 253.207 239 245 239V249ZM270.69 238.624C277.099 231.614 280 222.188 280 211H270C270 220.479 267.568 227.219 263.31 231.876L270.69 238.624ZM280 211V173.5H270V211H280ZM280 173.5C280 162.312 277.099 152.886 270.69 145.876L263.31 152.624C267.568 157.281 270 164.021 270 173.5H280ZM270.69 145.876C264.237 138.819 255.46 135.5 245 135.5V145.5C253.207 145.5 259.096 148.015 263.31 152.624L270.69 145.876ZM245 135.5C234.622 135.5 225.842 138.248 219.33 144.352L226.17 151.648C230.325 147.752 236.378 145.5 245 145.5V135.5ZM219.392 144.295C212.54 150.505 209.75 160.303 209.75 172.25H219.75C219.75 161.53 222.293 155.162 226.108 151.705L219.392 144.295ZM209.75 172.25V212.25H219.75V172.25H209.75ZM209.75 212.25C209.75 224.076 212.561 233.802 219.33 240.148L226.17 232.852C222.272 229.198 219.75 222.757 219.75 212.25H209.75ZM219.33 240.148C225.842 246.252 234.622 249 245 249V239C236.378 239 230.325 236.748 226.17 232.852L219.33 240.148Z" fill="black" mask="url(#path-2-outside-1_1_3)"/>
</g>
<defs>
<clipPath id="clip0_1_3">
<rect width="341" height="341" rx="50" fill="#e7e7e7"/>
</clipPath>
</defs>
</svg>
