<svg width="341" height="341" viewBox="0 0 341 341" fill="none" xmlns="http://www.w3.org/2000/svg">
    <g clip-path="url(#clip0_1_3)">
        <rect width="341" height="341" rx="50" fill="#e7e7e7" />
        <path
            d="M96.5977 263.5C78.931 263.5 64.8477 258.833 54.3477 249.5C43.8477 240.167 38.5977 227.333 38.5977 211H61.0977C61.0977 221.167 64.3477 229.167 70.8477 235C77.3477 240.667 85.931 243.5 96.5977 243.5C106.931 243.5 115.181 240.5 121.348 234.5C127.514 228.5 130.598 220.667 130.598 211C130.598 203.667 128.598 197.333 124.598 192C120.764 186.5 115.181 182.75 107.848 180.75L80.0977 173C68.5977 169.667 59.5143 163.75 52.8477 155.25C46.3477 146.583 43.0977 136.417 43.0977 124.75C43.0977 115.083 45.2643 106.583 49.5977 99.25C53.931 91.9167 60.0143 86.25 67.8477 82.25C75.681 78.0833 84.681 76 94.8477 76C105.181 76 114.264 78.0833 122.098 82.25C130.098 86.25 136.348 91.9167 140.848 99.25C145.348 106.417 147.598 114.75 147.598 124.25H125.098C125.098 115.917 122.264 109.167 116.598 104C110.931 98.6667 103.681 96 94.8477 96C86.0143 96 78.8477 98.6667 73.3477 104C67.8477 109.167 65.0977 115.917 65.0977 124.25C65.0977 130.917 66.8477 136.667 70.3477 141.5C74.0143 146.167 79.0977 149.417 85.5977 151.25L114.098 159.25C126.264 162.583 135.681 168.917 142.348 178.25C149.181 187.417 152.598 198.333 152.598 211C152.598 227 147.514 239.75 137.348 249.25C127.181 258.75 113.598 263.5 96.5977 263.5ZM193.5 261V78.5H240.75C252.583 78.5 262.75 80.75 271.25 85.25C279.917 89.75 286.583 96.0833 291.25 104.25C296.083 112.417 298.5 122.083 298.5 133.25V206C298.5 217.167 296.083 226.917 291.25 235.25C286.583 243.417 279.917 249.75 271.25 254.25C262.75 258.75 252.583 261 240.75 261H193.5ZM216 241H240.75C251.75 241 260.333 237.917 266.5 231.75C272.833 225.583 276 217 276 206V133.25C276 122.417 272.833 113.917 266.5 107.75C260.333 101.583 251.75 98.5 240.75 98.5H216V241Z"
            fill="#161616"
            stroke="#161616"
            stroke-width="10"
        />
    </g>
    <defs>
        <clipPath id="clip0_1_3">
            <rect width="341" height="341" rx="50" fill="#e7e7e7" />
        </clipPath>
    </defs>
</svg>