<svg width="341" height="341" viewBox="0 0 341 341" fill="none" xmlns="http://www.w3.org/2000/svg">
<g clip-path="url(#clip0_1_3)">
<rect width="341" height="341" rx="50" fill="#e7e7e7"/>
<mask id="path-2-outside-1_1_3" maskUnits="userSpaceOnUse" x="50" y="106" width="250" height="129" fill="#161616">
<rect fill="white" x="50" y="106" width="250" height="129"/>
<path d="M86.0738 229.28C76.2604 229.28 68.6338 227.093 63.1938 222.72C57.8604 218.24 55.1938 211.947 55.1938 203.84H69.5938C69.5938 207.893 71.0338 211.093 73.9138 213.44C76.7938 215.68 80.8471 216.8 86.0738 216.8H93.1138C98.4471 216.8 102.554 215.627 105.434 213.28C108.42 210.933 109.914 207.627 109.914 203.36C109.914 195.787 106.447 191.52 99.5138 190.56L75.1938 187.04C69.2204 186.187 64.5804 183.733 61.2738 179.68C57.9671 175.52 56.3138 170.08 56.3138 163.36C56.3138 155.68 58.9271 149.653 64.1538 145.28C69.4871 140.907 76.7938 138.72 86.0738 138.72H93.1138C101.647 138.72 108.58 140.853 113.914 145.12C119.354 149.28 122.287 154.773 122.714 161.6H108.154C107.94 158.507 106.447 155.947 103.674 153.92C101.007 151.893 97.4871 150.88 93.1138 150.88H86.0738C81.1671 150.88 77.3271 152 74.5538 154.24C71.7804 156.48 70.3938 159.52 70.3938 163.36C70.3938 169.547 73.2204 173.067 78.8738 173.92L101.594 177.12C116.527 179.253 123.994 188 123.994 203.36C123.994 211.573 121.274 217.973 115.834 222.56C110.5 227.04 102.927 229.28 93.1138 229.28H86.0738ZM180.411 229.6C171.665 229.6 164.625 226.667 159.291 220.8C154.065 214.933 151.451 206.987 151.451 196.96V171.2C151.451 161.067 154.065 153.067 159.291 147.2C164.518 141.333 171.558 138.4 180.411 138.4C187.025 138.4 192.465 140.053 196.731 143.36C201.105 146.667 203.718 151.147 204.571 156.8H204.731L204.411 136.8V111.2H218.811V228H204.411V211.2H204.251C203.505 216.96 200.998 221.493 196.731 224.8C192.465 228 187.025 229.6 180.411 229.6ZM185.211 217.12C191.185 217.12 195.878 215.253 199.291 211.52C202.705 207.787 204.411 202.613 204.411 196V172C204.411 165.387 202.705 160.213 199.291 156.48C195.878 152.747 191.185 150.88 185.211 150.88C179.131 150.88 174.385 152.48 170.971 155.68C167.558 158.773 165.851 163.947 165.851 171.2V196.8C165.851 203.947 167.558 209.12 170.971 212.32C174.385 215.52 179.131 217.12 185.211 217.12ZM281.469 229.6C277.522 229.6 274.322 228.427 271.869 226.08C269.522 223.733 268.349 220.693 268.349 216.96C268.349 213.013 269.522 209.813 271.869 207.36C274.322 204.907 277.522 203.68 281.469 203.68C285.415 203.68 288.562 204.907 290.909 207.36C293.362 209.813 294.589 213.013 294.589 216.96C294.589 220.693 293.362 223.733 290.909 226.08C288.562 228.427 285.415 229.6 281.469 229.6Z"/>
</mask>
<path d="M86.0738 229.28C76.2604 229.28 68.6338 227.093 63.1938 222.72C57.8604 218.24 55.1938 211.947 55.1938 203.84H69.5938C69.5938 207.893 71.0338 211.093 73.9138 213.44C76.7938 215.68 80.8471 216.8 86.0738 216.8H93.1138C98.4471 216.8 102.554 215.627 105.434 213.28C108.42 210.933 109.914 207.627 109.914 203.36C109.914 195.787 106.447 191.52 99.5138 190.56L75.1938 187.04C69.2204 186.187 64.5804 183.733 61.2738 179.68C57.9671 175.52 56.3138 170.08 56.3138 163.36C56.3138 155.68 58.9271 149.653 64.1538 145.28C69.4871 140.907 76.7938 138.72 86.0738 138.72H93.1138C101.647 138.72 108.58 140.853 113.914 145.12C119.354 149.28 122.287 154.773 122.714 161.6H108.154C107.94 158.507 106.447 155.947 103.674 153.92C101.007 151.893 97.4871 150.88 93.1138 150.88H86.0738C81.1671 150.88 77.3271 152 74.5538 154.24C71.7804 156.48 70.3938 159.52 70.3938 163.36C70.3938 169.547 73.2204 173.067 78.8738 173.92L101.594 177.12C116.527 179.253 123.994 188 123.994 203.36C123.994 211.573 121.274 217.973 115.834 222.56C110.5 227.04 102.927 229.28 93.1138 229.28H86.0738ZM180.411 229.6C171.665 229.6 164.625 226.667 159.291 220.8C154.065 214.933 151.451 206.987 151.451 196.96V171.2C151.451 161.067 154.065 153.067 159.291 147.2C164.518 141.333 171.558 138.4 180.411 138.4C187.025 138.4 192.465 140.053 196.731 143.36C201.105 146.667 203.718 151.147 204.571 156.8H204.731L204.411 136.8V111.2H218.811V228H204.411V211.2H204.251C203.505 216.96 200.998 221.493 196.731 224.8C192.465 228 187.025 229.6 180.411 229.6ZM185.211 217.12C191.185 217.12 195.878 215.253 199.291 211.52C202.705 207.787 204.411 202.613 204.411 196V172C204.411 165.387 202.705 160.213 199.291 156.48C195.878 152.747 191.185 150.88 185.211 150.88C179.131 150.88 174.385 152.48 170.971 155.68C167.558 158.773 165.851 163.947 165.851 171.2V196.8C165.851 203.947 167.558 209.12 170.971 212.32C174.385 215.52 179.131 217.12 185.211 217.12ZM281.469 229.6C277.522 229.6 274.322 228.427 271.869 226.08C269.522 223.733 268.349 220.693 268.349 216.96C268.349 213.013 269.522 209.813 271.869 207.36C274.322 204.907 277.522 203.68 281.469 203.68C285.415 203.68 288.562 204.907 290.909 207.36C293.362 209.813 294.589 213.013 294.589 216.96C294.589 220.693 293.362 223.733 290.909 226.08C288.562 228.427 285.415 229.6 281.469 229.6Z" fill="black"/>
<path d="M63.1938 222.72L59.9778 226.549L60.019 226.583L60.061 226.617L63.1938 222.72ZM55.1938 203.84V198.84H50.1938V203.84H55.1938ZM69.5938 203.84H74.5938V198.84H69.5938V203.84ZM73.9138 213.44L70.7554 217.316L70.7993 217.352L70.844 217.387L73.9138 213.44ZM105.434 213.28L102.345 209.348L102.31 209.376L102.275 209.404L105.434 213.28ZM99.5138 190.56L98.7975 195.508L98.8128 195.511L98.828 195.513L99.5138 190.56ZM75.1938 187.04L75.91 182.092L75.9009 182.09L75.1938 187.04ZM61.2738 179.68L57.3596 182.791L57.3794 182.816L57.3994 182.841L61.2738 179.68ZM64.1538 145.28L60.9834 141.414L60.9642 141.429L60.9451 141.445L64.1538 145.28ZM113.914 145.12L110.79 149.024L110.833 149.059L110.877 149.092L113.914 145.12ZM122.714 161.6V166.6H128.036L127.704 161.288L122.714 161.6ZM108.154 161.6L103.166 161.944L103.487 166.6H108.154V161.6ZM103.674 153.92L100.648 157.901L100.686 157.929L100.724 157.957L103.674 153.92ZM74.5538 154.24L77.6954 158.13L77.6954 158.13L74.5538 154.24ZM78.8738 173.92L78.1275 178.864L78.1519 178.868L78.1764 178.871L78.8738 173.92ZM101.594 177.12L102.301 172.17L102.291 172.169L101.594 177.12ZM115.834 222.56L119.05 226.389L119.057 226.383L115.834 222.56ZM86.0738 224.28C76.9454 224.28 70.5793 222.242 66.3265 218.823L60.061 226.617C66.6882 231.945 75.5755 234.28 86.0738 234.28V224.28ZM66.4097 218.891C62.3985 215.522 60.1938 210.739 60.1938 203.84H50.1938C50.1938 213.154 53.3224 220.958 59.9778 226.549L66.4097 218.891ZM55.1938 208.84H69.5938V198.84H55.1938V208.84ZM64.5938 203.84C64.5938 209.241 66.5943 213.926 70.7554 217.316L77.0721 209.564C75.4733 208.261 74.5938 206.546 74.5938 203.84H64.5938ZM70.844 217.387C74.9104 220.549 80.2025 221.8 86.0738 221.8V211.8C81.4916 211.8 78.6771 210.811 76.9835 209.493L70.844 217.387ZM86.0738 221.8H93.1138V211.8H86.0738V221.8ZM93.1138 221.8C99.1083 221.8 104.503 220.488 108.592 217.156L102.275 209.404C100.605 210.765 97.7859 211.8 93.1138 211.8V221.8ZM108.523 217.212C112.876 213.792 114.914 208.946 114.914 203.36H104.914C104.914 206.308 103.965 208.075 102.345 209.348L108.523 217.212ZM114.914 203.36C114.914 198.855 113.883 194.636 111.194 191.327C108.461 187.963 104.565 186.212 100.2 185.607L98.828 195.513C101.396 195.868 102.699 196.73 103.433 197.633C104.211 198.59 104.914 200.292 104.914 203.36H114.914ZM100.23 185.612L75.91 182.092L74.4775 191.988L98.7975 195.508L100.23 185.612ZM75.9009 182.09C70.9663 181.385 67.5397 179.451 65.1481 176.519L57.3994 182.841C61.6212 188.016 67.4746 190.988 74.4866 191.99L75.9009 182.09ZM65.1879 176.569C62.7529 173.505 61.3138 169.254 61.3138 163.36H51.3138C51.3138 170.906 53.1813 177.535 57.3596 182.791L65.1879 176.569ZM61.3138 163.36C61.3138 156.949 63.4236 152.41 67.3624 149.115L60.9451 141.445C54.4305 146.896 51.3138 154.411 51.3138 163.36H61.3138ZM67.3241 149.146C71.4968 145.725 77.55 143.72 86.0738 143.72V133.72C76.0375 133.72 67.4774 136.089 60.9834 141.414L67.3241 149.146ZM86.0738 143.72H93.1138V133.72H86.0738V143.72ZM93.1138 143.72C100.801 143.72 106.546 145.629 110.79 149.024L117.037 141.216C110.615 136.078 102.493 133.72 93.1138 133.72V143.72ZM110.877 149.092C115.168 152.373 117.387 156.532 117.723 161.912L127.704 161.288C127.187 153.014 123.54 146.187 116.951 141.148L110.877 149.092ZM122.714 156.6H108.154V166.6H122.714V156.6ZM113.142 161.256C112.815 156.521 110.443 152.674 106.624 149.883L100.724 157.957C102.451 159.219 103.065 160.492 103.166 161.944L113.142 161.256ZM106.699 149.939C102.929 147.074 98.2451 145.88 93.1138 145.88V155.88C96.729 155.88 99.085 156.713 100.648 157.901L106.699 149.939ZM93.1138 145.88H86.0738V155.88H93.1138V145.88ZM86.0738 145.88C80.4501 145.88 75.3579 147.163 71.4121 150.35L77.6954 158.13C79.2962 156.837 81.8841 155.88 86.0738 155.88V145.88ZM71.4121 150.35C67.3634 153.62 65.3938 158.143 65.3938 163.36H75.3938C75.3938 160.897 76.1974 159.34 77.6954 158.13L71.4121 150.35ZM65.3938 163.36C65.3938 167.174 66.265 170.844 68.6152 173.771C71.0078 176.75 74.4032 178.302 78.1275 178.864L79.62 168.976C77.691 168.685 76.8464 168.05 76.4123 167.509C75.9358 166.916 75.3938 165.733 75.3938 163.36H65.3938ZM78.1764 178.871L100.896 182.071L102.291 172.169L79.5711 168.969L78.1764 178.871ZM100.887 182.07C107.531 183.019 111.867 185.336 114.591 188.526C117.325 191.729 118.994 196.467 118.994 203.36H128.994C128.994 194.893 126.929 187.578 122.197 182.034C117.454 176.478 110.589 173.354 102.301 172.17L100.887 182.07ZM118.994 203.36C118.994 210.353 116.744 215.253 112.611 218.737L119.057 226.383C125.804 220.694 128.994 212.794 128.994 203.36H118.994ZM112.618 218.731C108.492 222.197 102.226 224.28 93.1138 224.28V234.28C103.629 234.28 112.509 231.883 119.05 226.389L112.618 218.731ZM93.1138 224.28H86.0738V234.28H93.1138V224.28ZM159.291 220.8L155.558 224.126L155.575 224.145L155.592 224.163L159.291 220.8ZM159.291 147.2L163.025 150.526L163.025 150.526L159.291 147.2ZM196.731 143.36L193.668 147.312L193.692 147.33L193.716 147.348L196.731 143.36ZM204.571 156.8L199.627 157.546L200.269 161.8H204.571V156.8ZM204.731 156.8V161.8H209.812L209.731 156.72L204.731 156.8ZM204.411 136.8H199.411V136.84L199.412 136.88L204.411 136.8ZM204.411 111.2V106.2H199.411V111.2H204.411ZM218.811 111.2H223.811V106.2H218.811V111.2ZM218.811 228V233H223.811V228H218.811ZM204.411 228H199.411V233H204.411V228ZM204.411 211.2H209.411V206.2H204.411V211.2ZM204.251 211.2V206.2H199.858L199.293 210.557L204.251 211.2ZM196.731 224.8L199.731 228.8L199.763 228.776L199.794 228.752L196.731 224.8ZM199.291 211.52L195.601 208.146L199.291 211.52ZM170.971 155.68L174.329 159.385L174.36 159.357L174.391 159.328L170.971 155.68ZM180.411 224.6C172.911 224.6 167.273 222.147 162.991 217.437L155.592 224.163C161.976 231.187 170.418 234.6 180.411 234.6V224.6ZM163.025 217.474C158.819 212.754 156.451 206.109 156.451 196.96H146.451C146.451 207.864 149.31 217.113 155.558 224.126L163.025 217.474ZM156.451 196.96V171.2H146.451V196.96H156.451ZM156.451 171.2C156.451 161.928 158.828 155.237 163.025 150.526L155.558 143.874C149.301 150.897 146.451 160.205 146.451 171.2H156.451ZM163.025 150.526C167.176 145.866 172.783 143.4 180.411 143.4V133.4C170.333 133.4 161.859 136.801 155.558 143.874L163.025 150.526ZM180.411 143.4C186.172 143.4 190.461 144.826 193.668 147.312L199.794 139.408C194.468 135.28 187.877 133.4 180.411 133.4V143.4ZM193.716 147.348C196.999 149.831 198.96 153.123 199.627 157.546L209.515 156.054C208.476 149.171 205.21 143.502 199.747 139.372L193.716 147.348ZM204.571 161.8H204.731V151.8H204.571V161.8ZM209.731 156.72L209.411 136.72L199.412 136.88L199.732 156.88L209.731 156.72ZM209.411 136.8V111.2H199.411V136.8H209.411ZM204.411 116.2H218.811V106.2H204.411V116.2ZM213.811 111.2V228H223.811V111.2H213.811ZM218.811 223H204.411V233H218.811V223ZM209.411 228V211.2H199.411V228H209.411ZM204.411 206.2H204.251V216.2H204.411V206.2ZM199.293 210.557C198.702 215.117 196.806 218.416 193.668 220.848L199.794 228.752C205.19 224.571 208.308 218.803 209.21 211.843L199.293 210.557ZM193.731 220.8C190.52 223.208 186.207 224.6 180.411 224.6V234.6C187.842 234.6 194.409 232.792 199.731 228.8L193.731 220.8ZM185.211 222.12C192.311 222.12 198.449 219.851 202.981 214.894L195.601 208.146C193.307 210.655 190.058 212.12 185.211 212.12V222.12ZM202.981 214.894C207.47 209.984 209.411 203.468 209.411 196H199.411C199.411 201.759 197.939 205.589 195.601 208.146L202.981 214.894ZM209.411 196V172H199.411V196H209.411ZM209.411 172C209.411 164.532 207.47 158.016 202.981 153.106L195.601 159.854C197.939 162.411 199.411 166.241 199.411 172H209.411ZM202.981 153.106C198.449 148.149 192.311 145.88 185.211 145.88V155.88C190.058 155.88 193.307 157.345 195.601 159.854L202.981 153.106ZM185.211 145.88C178.254 145.88 172.143 147.728 167.552 152.032L174.391 159.328C176.626 157.232 180.009 155.88 185.211 155.88V145.88ZM167.614 151.975C162.682 156.445 160.851 163.333 160.851 171.2H170.851C170.851 164.56 172.434 161.102 174.329 159.385L167.614 151.975ZM160.851 171.2V196.8H170.851V171.2H160.851ZM160.851 196.8C160.851 204.606 162.702 211.422 167.552 215.968L174.391 208.672C172.413 206.818 170.851 203.287 170.851 196.8H160.851ZM167.552 215.968C172.143 220.272 178.254 222.12 185.211 222.12V212.12C180.009 212.12 176.626 210.768 174.391 208.672L167.552 215.968ZM271.869 226.08L268.333 229.616L268.372 229.655L268.413 229.693L271.869 226.08ZM271.869 207.36L268.333 203.824L268.294 203.864L268.256 203.904L271.869 207.36ZM290.909 207.36L287.296 210.816L287.334 210.856L287.373 210.896L290.909 207.36ZM290.909 226.08L287.453 222.467L287.412 222.505L287.373 222.544L290.909 226.08ZM281.469 224.6C278.585 224.6 276.697 223.779 275.325 222.467L268.413 229.693C271.947 233.074 276.459 234.6 281.469 234.6V224.6ZM275.404 222.544C274.116 221.256 273.349 219.548 273.349 216.96H263.349C263.349 221.839 264.928 226.211 268.333 229.616L275.404 222.544ZM273.349 216.96C273.349 214.076 274.169 212.188 275.482 210.816L268.256 203.904C264.875 207.438 263.349 211.95 263.349 216.96H273.349ZM275.404 210.896C276.788 209.511 278.65 208.68 281.469 208.68V198.68C276.394 198.68 271.856 200.302 268.333 203.824L275.404 210.896ZM281.469 208.68C284.292 208.68 286.047 209.511 287.296 210.816L294.522 203.904C291.077 200.303 286.539 198.68 281.469 198.68V208.68ZM287.373 210.896C288.757 212.28 289.589 214.141 289.589 216.96H299.589C299.589 211.886 297.967 207.347 294.444 203.824L287.373 210.896ZM289.589 216.96C289.589 219.479 288.816 221.163 287.453 222.467L294.365 229.693C297.908 226.304 299.589 221.907 299.589 216.96H289.589ZM287.373 222.544C286.139 223.779 284.359 224.6 281.469 224.6V234.6C286.472 234.6 290.985 233.075 294.444 229.616L287.373 222.544Z" fill="black" mask="url(#path-2-outside-1_1_3)"/>
</g>
<defs>
<clipPath id="clip0_1_3">
<rect width="341" height="341" rx="50" fill="#e7e7e7"/>
</clipPath>
</defs>
</svg>
